<?xml version="1.0" standalone="no"?><!DOCTYPE svg PUBLIC "-//W3C//DTD SVG 1.1//EN" "http://www.w3.org/Graphics/SVG/1.1/DTD/svg11.dtd"><svg t="1552633986427" class="icon" style="" viewBox="0 0 1024 1024" version="1.1" xmlns="http://www.w3.org/2000/svg" p-id="3240" xmlns:xlink="http://www.w3.org/1999/xlink" width="64" height="64"><defs><style type="text/css"></style></defs><path d="M493.44 88.32a415.36 415.36 0 0 0-332.8 164.48A462.72 462.72 0 0 0 80 595.2 49.28 49.28 0 0 0 128 640l712.96-8.32a49.28 49.28 0 0 0 48-40.32 483.84 483.84 0 0 0-9.6-192 416.64 416.64 0 0 0-263.68-293.12 395.52 395.52 0 0 0-119.68-17.28z" fill="#FFFFFF" p-id="3241"></path><path d="M493.44 106.24a376.32 376.32 0 0 1 113.92 16 399.36 399.36 0 0 1 256 280.32 464.64 464.64 0 0 1 8.96 183.04 32 32 0 0 1-30.72 25.6L128 619.52a31.36 31.36 0 0 1-31.36-26.88 443.52 443.52 0 0 1 76.8-328.96 398.08 398.08 0 0 1 320-158.08m0-17.92a415.36 415.36 0 0 0-332.8 164.48A462.72 462.72 0 0 0 80 595.2 49.28 49.28 0 0 0 128 640l712.96-8.32a49.28 49.28 0 0 0 48-40.32 483.84 483.84 0 0 0-9.6-192 416.64 416.64 0 0 0-263.68-293.12 395.52 395.52 0 0 0-119.68-17.28z" fill="#4F4E4E" p-id="3242"></path><path d="M561.92 323.2a49.28 49.28 0 0 0-38.4 17.92c-46.08 56.32-196.48 97.28-280.32 110.08a49.28 49.28 0 0 0-41.6 48.64v240a146.56 146.56 0 0 0 146.56 146.56h274.56A146.56 146.56 0 0 0 768 740.48V500.48a49.28 49.28 0 0 0-26.88-44.16 417.28 417.28 0 0 1-138.88-112 49.28 49.28 0 0 0-38.4-21.12z" fill="#FFFFFF" p-id="3243"></path><path d="M561.92 341.12a32 32 0 0 1 24.96 13.44 436.48 436.48 0 0 0 146.56 117.76 31.36 31.36 0 0 1 17.28 28.16v240a128 128 0 0 1-128 128H348.16a128 128 0 0 1-128-128V500.48a31.36 31.36 0 0 1 26.88-31.36c64-9.6 236.16-49.28 291.2-116.48a31.36 31.36 0 0 1 24.32-11.52m0-17.92a49.28 49.28 0 0 0-38.4 17.92c-46.08 56.32-196.48 97.28-280.32 110.08a49.28 49.28 0 0 0-41.6 48.64v240a146.56 146.56 0 0 0 146.56 146.56h273.92A146.56 146.56 0 0 0 768 740.48V500.48a49.28 49.28 0 0 0-26.88-44.16 417.28 417.28 0 0 1-138.88-112 49.28 49.28 0 0 0-38.4-21.12z" fill="#4F4E4E" p-id="3244"></path><path d="M736 501.12v256a104.32 104.32 0 0 1-103.68 103.68H338.56a104.32 104.32 0 0 1-103.68-103.68v-256s251.52-38.4 332.16-136.32a490.88 490.88 0 0 0 168.96 136.32z" fill="#FFFFFF" p-id="3245"></path><path d="M359.04 728.32a199.04 184.96 90 1 0 369.92 0 199.04 184.96 90 1 0-369.92 0Z" fill="#EDF1F1" p-id="3246"></path><path d="M601.6 615.68H368.64a19.84 19.84 0 1 1 0-39.68H601.6a19.84 19.84 0 1 1 0 39.68z" fill="#C8CFD1" p-id="3247"></path><path d="M624 584.96H346.24a8.96 8.96 0 0 1 0-17.92h277.76a8.96 8.96 0 0 1 0 17.92zM825.6 630.4a398.72 398.72 0 0 1-128 12.8 7.68 7.68 0 0 1 0-15.36s34.56-16.64 33.92-85.12a147.2 147.2 0 0 1 58.24-122.88 92.16 92.16 0 0 1 88.32-9.6 108.16 108.16 0 0 1 57.6 120.96 135.68 135.68 0 0 1-110.08 99.2z" fill="#4E4D4E" p-id="3248"></path><path d="M716.8 627.84c159.36 0 192-68.48 198.4-99.2a92.16 92.16 0 0 0-48-103.04 76.8 76.8 0 0 0-73.6 8.32 128 128 0 0 0-51.2 109.44 128 128 0 0 1-25.6 84.48z" fill="#D0EBEF" p-id="3249"></path><path d="M743.04 609.92c139.52 5.12 161.28-64 168.32-89.6a80.64 80.64 0 0 0-39.04-91.52 67.2 67.2 0 0 0-64 5.12 114.56 114.56 0 0 0-48 94.08 149.76 149.76 0 0 1-17.28 81.92z" fill="#ACDAD9" p-id="3250"></path><path d="M855.810646 472.69595m-29.418137 8.848255a30.72 30.72 0 1 0 58.836274-17.69651 30.72 30.72 0 1 0-58.836274 17.69651Z" fill="#FFFFFF" p-id="3251"></path><path d="M160 692.48m16 0l618.24 0q16 0 16 16l0 270.08q0 16-16 16l-618.24 0q-16 0-16-16l0-270.08q0-16 16-16Z" fill="#E99F7F" p-id="3252"></path><path d="M785.28 709.76a7.68 7.68 0 0 1 7.68 7.68v252.16a7.68 7.68 0 0 1-7.68 7.68H184.96a7.68 7.68 0 0 1-7.68-7.68v-252.16a7.68 7.68 0 0 1 7.68-7.68h600.32m0-17.92H184.96a24.96 24.96 0 0 0-24.96 24.96v252.16a24.96 24.96 0 0 0 24.96 24.96h600.32a24.96 24.96 0 0 0 24.96-24.96v-251.52a24.96 24.96 0 0 0-24.96-24.96z" fill="#4E4D4E" p-id="3253"></path><path d="M208.91337 646.273991m36.580913-21.12l43.231988-24.96q36.580913-21.12 57.700913 15.460913l50.56 87.572489q21.12 36.580913-15.460913 57.700913l-43.231988 24.96q-36.580913 21.12-57.700913-15.460913l-50.56-87.572489q-21.12-36.580913 15.460913-57.700913Z" fill="#FFFFFF" p-id="3254"></path><path d="M300.8 621.44a49.92 49.92 0 0 1 42.88 24.96l25.6 44.16A49.28 49.28 0 0 1 326.4 768a49.92 49.92 0 0 1-42.88-24.96L256 695.68a49.28 49.28 0 0 1 44.8-74.24m0-17.92A64 64 0 0 0 242.56 704l25.6 44.16a64 64 0 1 0 116.48-64l-25.6-44.16a64 64 0 0 0-58.24-33.28z" fill="#4F4E4E" p-id="3255"></path><path d="M320 808.32h-47.36V832h42.24a10.24 10.24 0 0 1 7.04 0 7.04 7.04 0 0 1 0 5.76 7.68 7.68 0 0 1 0 5.76 9.6 9.6 0 0 1-7.04 0h-42.24v28.8H320a10.24 10.24 0 0 1 7.04 0 7.68 7.68 0 0 1 0 5.76 7.68 7.68 0 0 1 0 5.76A10.24 10.24 0 0 1 320 896h-55.04a10.88 10.88 0 0 1-12.8-12.8v-78.08a17.28 17.28 0 0 1 0-7.04 8.32 8.32 0 0 1 3.84-3.84h64a10.24 10.24 0 0 1 7.04 0 8.32 8.32 0 0 1 0 11.52 10.24 10.24 0 0 1-7.04 2.56zM384 878.72l-16-64v69.76a12.8 12.8 0 0 1 0 8.96 9.6 9.6 0 0 1-13.44 0 12.8 12.8 0 0 1 0-8.96v-80.64a10.24 10.24 0 0 1 3.2-8.96 16.64 16.64 0 0 1 9.6 0h14.72a7.04 7.04 0 0 1 3.84 3.84 57.6 57.6 0 0 1 0 8.96l14.72 55.68 14.72-55.68a57.6 57.6 0 0 1 0-8.96 7.04 7.04 0 0 1 3.84-3.84h14.72a16.64 16.64 0 0 1 9.6 0 10.24 10.24 0 0 1 3.2 8.96v80a12.8 12.8 0 0 1 0 8.96 8.96 8.96 0 0 1-7.04 0 8.32 8.32 0 0 1-6.4 0 12.8 12.8 0 0 1 0-8.96v-69.76l-16 64v8.96a12.8 12.8 0 0 1-3.84 5.12 10.88 10.88 0 0 1-7.68 0h-5.76a11.52 11.52 0 0 1-3.84-3.84 22.4 22.4 0 0 1 0-5.12zM512 854.4h-21.76v28.8a13.44 13.44 0 0 1 0 9.6 9.6 9.6 0 0 1-7.04 0 9.6 9.6 0 0 1-7.68 0 13.44 13.44 0 0 1 0-8.96v-78.72a12.8 12.8 0 0 1 0-9.6 14.08 14.08 0 0 1 9.6 0H512a69.12 69.12 0 0 1 17.92 0 26.88 26.88 0 0 1 10.88 5.76 25.6 25.6 0 0 1 7.04 9.6 34.56 34.56 0 0 1 0 12.8 28.8 28.8 0 0 1-9.6 23.68 43.52 43.52 0 0 1-26.24 7.04z m-5.12-46.08h-16.64v30.72H516.48a14.08 14.08 0 0 0 7.04-7.04 14.72 14.72 0 0 0 0-8.96 15.36 15.36 0 0 0-3.84-10.88 26.24 26.24 0 0 0-15.36-3.84zM632.32 809.6h-22.4v73.6a13.44 13.44 0 0 1 0 9.6 9.6 9.6 0 0 1-7.04 0 9.6 9.6 0 0 1-7.68 0 13.44 13.44 0 0 1 0-9.6v-73.6h-27.52a11.52 11.52 0 0 1-7.68 0 8.32 8.32 0 0 1 0-12.16 11.52 11.52 0 0 1 7.68 0h64a11.52 11.52 0 0 1 7.68 0 7.68 7.68 0 0 1 0 6.4 7.68 7.68 0 0 1 0 6.4 11.52 11.52 0 0 1-7.04-0.64zM680.32 883.2v-32l-24.96-38.4-4.48-8.32a12.16 12.16 0 0 1 0-5.12 8.32 8.32 0 0 1 0-5.76 9.6 9.6 0 0 1 7.04 0 8.32 8.32 0 0 1 6.4 0l6.4 9.6 19.2 30.72 19.2-30.72v-8.32h4.48a8.96 8.96 0 0 1 6.4 0 7.68 7.68 0 0 1 0 5.76 12.16 12.16 0 0 1 0 5.12l-4.48 7.68-25.6 39.04v32a13.44 13.44 0 0 1 0 9.6 9.6 9.6 0 0 1-7.68 0 9.6 9.6 0 0 1-7.68 0 13.44 13.44 0 0 1 5.76-10.88z" fill="#FFFFFF" p-id="3256"></path><path d="M923.52 110.08q6.4 0 9.6 4.48a6.4 6.4 0 0 1-3.84 8.96q-26.24 10.24-51.2 18.56l-8.32 3.2a117.12 117.12 0 0 1-30.72 6.4 9.6 9.6 0 0 1-6.4-8.96 49.28 49.28 0 0 1 7.04-20.48l8.96-17.92 5.76-10.88 16.64-29.44a53.76 53.76 0 0 0 7.68-17.92h-5.12L857.6 51.2l-15.36 3.2a147.84 147.84 0 0 0-35.2 8.96 7.68 7.68 0 0 1-5.76-14.72l33.92-8.96a50.56 50.56 0 0 0 13.44-3.84l15.36-3.2 13.44-3.84c6.4 0 10.88 0 12.8 4.48s0 24.96-14.08 45.44-16.64 29.44-23.68 44.16l-5.76 11.52 18.56-6.4h8.32zM945.92 250.24s3.84 0 3.84 3.84a3.2 3.2 0 0 1-3.84 3.84h-33.28A64 64 0 0 1 896 256a5.12 5.12 0 0 1 0-5.76 26.24 26.24 0 0 1 7.68-8.96l7.68-7.04 5.12-3.84 14.08-11.52a28.16 28.16 0 0 0 7.68-7.68h-19.84a77.44 77.44 0 0 0-19.2 0 4.48 4.48 0 0 1 0-8.32h43.52c3.2 0 5.12 0 5.76 4.48s-5.12 12.16-15.36 19.2l-20.48 17.28-5.12 4.48h40.32z" fill="#231815" p-id="3257"></path></svg>