<?xml version="1.0" standalone="no"?><!DOCTYPE svg PUBLIC "-//W3C//DTD SVG 1.1//EN" "http://www.w3.org/Graphics/SVG/1.1/DTD/svg11.dtd"><svg t="1559627606532" class="icon" style="" viewBox="0 0 1620 1024" version="1.1" xmlns="http://www.w3.org/2000/svg" p-id="2643" xmlns:xlink="http://www.w3.org/1999/xlink" width="50.625" height="32"><defs><style type="text/css"></style></defs><path d="M170.440084 699.835429h21.127579c5.750702 0.125015 10.251251 4.75058 10.251252 10.501282 0 5.750702-4.500549 10.501282-10.251252 10.501282h-21.127579v21.127579c-0.125015 5.625687-4.75058 10.251251-10.501281 10.251251-2.750336 0-5.375656-1.000122-7.375901-2.875351-2.000244-1.875229-3.125382-4.500549-3.125381-7.250885v-21.127579h-21.127579c-5.750702-0.125015-10.251251-4.75058-10.251252-10.501282 0-5.750702 4.500549-10.501282 10.251252-10.501282h21.127579V678.832865c0.125015-5.750702 4.75058-10.251251 10.501282-10.251251 5.750702 0 10.501282 4.500549 10.501281 10.251251v21.002564zM1549.233394 616.325235v-21.127579c0-2.750336-1.125137-5.375656-3.125381-7.250885s-4.625565-3.000366-7.375901-2.875351c-5.625687 0-10.376267 4.500549-10.501282 10.251251V616.325235h-21.127579c-2.750336 0-5.375656 1.125137-7.250885 3.125382s-3.000366 4.625565-2.875351 7.3759c0 5.625687 4.625565 10.501282 10.251252 10.501282h21.127579v21.127579c0 5.750702 4.625565 10.251251 10.501281 10.251251 5.750702 0 10.376267-4.500549 10.501282-10.251251v-21.127579h21.127579c5.750702 0 10.251251-4.625565 10.251252-10.501282 0-5.625687-4.500549-10.376267-10.251252-10.501282h-21.252594z m-758.842632 344.667074h-525.939202c-5.500671 0-10.876328-2.250275-14.7518-6.125748-3.875473-3.875473-6.125748-9.251129-6.125748-14.751801 0-11.501404 9.50116-20.877549 20.877548-20.877548h94.761568c-7.3759-12.626541-11.126358-27.003296-11.126358-41.630082V271.533146c0-22.127701 8.876084-43.380295 24.502991-59.132218 15.626908-15.626908 37.004517-24.377976 59.132218-24.377976h62.632646v-21.002564c0-22.127701 8.876084-43.380295 24.502991-59.132218a83.960249 83.960249 0 0 1 59.132218-24.377976h501.18618c22.127701 0 43.505311 8.751068 59.132218 24.377976 15.751923 15.626908 24.502991 36.879502 24.502991 59.132218v606.073984c0 15.126847-4.000488 29.378586-11.126358 41.630082h115.514101c11.501404 0 20.877549 9.251129 20.877549 20.877548 0 11.501404-9.251129 20.877549-20.877549 20.877549H1016.543368v21.002564c0 15.126847-4.000488 29.378586-11.126358 41.630081h11.251374c11.501404 0 20.877549 9.251129 20.877548 20.877549 0 11.501404-9.50116 20.877549-20.877548 20.877548h-109.888414c9.50116 16.001953 7.500916 37.004517-6.375779 50.881211-7.875961 7.875961-18.502259 12.251496-29.503601 12.251496-11.126358 0-21.752655-4.375534-29.503602-12.251496l-51.006226-50.756195z m76.384324-41.755097h66.383104c23.002808 0 41.630082-18.627274 41.630081-41.880113V270.533024c0-22.627762-18.002198-40.754975-40.379929-40.754975H430.096781c-22.252716 0-40.379929 18.252228-40.379929 40.754975v606.824075c0 23.127823 18.752289 41.880112 41.630081 41.880113h317.163717l-10.751313-10.751313c-10.626297-10.501282-14.751801-26.003174-10.876327-40.379929l-19.752412-19.752411c-61.382493 45.755585-147.768038 36.379441-197.899157-21.62764-50.13112-57.882066-47.005738-144.642657 7.000854-198.89928 54.256623-54.381638 141.267245-57.632035 199.274326-7.3759 58.007081 50.256135 67.383225 136.89171 21.252594 198.274203l19.752411 19.752411c14.376755-3.875473 29.878647 0.250031 40.37993 10.876328l69.88353 69.883531z m149.768282-104.512758h62.882677c23.002808-0.125015 41.630082-18.752289 41.630081-41.755097V167.145403c0-23.127823-18.627274-41.755097-41.630081-41.755097H577.614788c-23.002808 0.125015-41.505067 18.752289-41.630081 41.755097v20.877549h396.798437c22.127701 0 43.505311 8.751068 59.132218 24.377976 15.751923 15.626908 24.502991 36.879502 24.502991 59.132218v543.191308z m-736.339885-767.718716H311.332283c8.751068 0 15.876938 7.000855 15.876938 15.626908S320.083351 78.259553 311.332283 78.259553h-31.1288v31.1288c0 8.751068-7.000855 15.876938-15.626907 15.876938-4.125504 0-8.125992-1.750214-11.126359-4.75058-3.000366-3.000366-4.625565-7.000855-4.500549-11.126358V78.384568h-31.1288c-4.250519 0-8.251007-1.625198-11.251373-4.500549-3.000366-3.000366-4.625565-7.000855-4.625565-11.126358 0-8.626053 7.12587-15.626908 15.876938-15.626908h31.1288v-31.253815c0-8.751068 7.000855-15.876938 15.626908-15.876938s15.626908 7.12587 15.626907 15.876938v31.1288zM34.673511 940.11476c0-11.501404 9.50116-20.877549 20.877549-20.877548h125.515322c11.501404 0 20.877549 9.251129 20.877548 20.877548 0 11.501404-9.50116 20.877549-20.877548 20.877549h-125.515322c-5.500671 0-10.876328-2.250275-14.751801-6.125748-4.000488-3.875473-6.125748-9.251129-6.125748-14.751801z m658.830424-135.016481c40.754975-40.754975 40.754975-106.888048 0-147.768038-40.754975-40.754975-106.888048-40.754975-147.768038 0-40.754975 40.754975-40.754975 106.888048 0 147.768038 40.87999 40.754975 107.013063 40.754975 147.768038 0zM473.352061 313.413258c0-11.501404 9.376145-20.877549 20.877548-20.877548h229.77805c11.501404 0 20.877549 9.376145 20.877548 20.877548s-9.376145 20.877549-20.877548 20.877549H494.229609c-5.500671 0-10.876328-2.125259-14.7518-6.125748-3.875473-3.875473-6.125748-9.251129-6.125748-14.751801z m0 104.387743c0-11.501404 9.251129-20.877549 20.752533-20.877548h334.540838c11.501404 0 20.752533 9.251129 20.752533 20.877548 0 11.501404-9.251129 20.877549-20.752533 20.877549H494.104594c-5.500671 0-10.876328-2.250275-14.751801-6.125748-3.875473-3.875473-6.000733-9.251129-6.000732-14.751801z m0 104.512758c0-11.501404 9.376145-20.877549 20.877548-20.877549h146.267855c11.501404 0 20.877549 9.251129 20.877549 20.877549 0 11.501404-9.376145 20.877549-20.877549 20.877549h-146.267855c-5.500671 0-10.876328-2.125259-14.7518-6.125748-3.875473-3.875473-6.125748-9.251129-6.125748-14.751801z m-396.923453-125.390306c-22.377732 0-43.130265-12.001465-54.256623-31.378831-11.251373-19.377365-11.251373-43.25528 0-62.632645s31.878891-31.37883 54.256623-31.378831c34.629227 0 62.632646 28.003418 62.632646 62.632646 0.125015 34.754242-28.003418 62.757661-62.632646 62.757661z m0-31.378831c11.251373 0 21.502625-6.000733 27.128312-15.626907 5.625687-9.75119 5.625687-21.62764 0-31.378831-5.625687-9.75119-16.001953-15.626908-27.128312-15.626907-17.252106 0-31.37883 14.001709-31.37883 31.37883 0.125015 17.252106 14.126724 31.253815 31.37883 31.253815z m1295.283116-94.011476c-22.377732 0-43.130265-12.001465-54.256623-31.37883-11.251373-19.377365-11.251373-43.25528 0-62.632646s31.878891-31.37883 54.256623-31.37883c34.629227 0 62.632646 28.003418 62.632646 62.632645 0 34.754242-28.003418 62.757661-62.632646 62.757661z m0-31.253815c11.251373 0 21.502625-6.000733 27.128312-15.626908 5.625687-9.75119 5.625687-21.62764 0-31.37883-5.625687-9.75119-16.001953-15.626908-27.128312-15.626908-17.252106 0-31.37883 14.001709-31.37883 31.378831 0 17.127091 14.126724 31.253815 31.37883 31.253815z m0 0" fill="#ffffff" p-id="2644"></path></svg>