<?xml version="1.0" standalone="no"?><!DOCTYPE svg PUBLIC "-//W3C//DTD SVG 1.1//EN" "http://www.w3.org/Graphics/SVG/1.1/DTD/svg11.dtd"><svg t="1551767360640" class="icon" style="" viewBox="0 0 1024 1024" version="1.1" xmlns="http://www.w3.org/2000/svg" p-id="6065" xmlns:xlink="http://www.w3.org/1999/xlink" width="64" height="64"><defs><style type="text/css"></style></defs><path d="M512 106.5c54.8 0 107.9 10.7 157.8 31.8 48.3 20.4 91.6 49.7 128.9 86.9s66.5 80.6 86.9 128.9c21.1 50 31.8 103.1 31.8 157.8s-10.7 107.9-31.8 157.8c-20.4 48.3-49.7 91.6-86.9 128.9s-80.6 66.5-128.9 86.9c-50 21.1-103.1 31.8-157.8 31.8-54.8 0-107.9-10.7-157.8-31.8-48.3-20.4-91.6-49.7-128.9-86.9-37.3-37.3-66.5-80.6-86.9-128.9-21.1-50-31.8-103.1-31.8-157.8s10.7-107.9 31.8-157.8c20.4-48.3 49.7-91.6 86.9-128.9 37.3-37.3 80.6-66.5 128.9-86.9 49.9-21.1 103-31.8 157.8-31.8m0-42.5C264.6 64 64 264.6 64 512s200.6 448 448 448 448-200.6 448-448S759.4 64 512 64z" p-id="6066" fill="#1296db"></path><path d="M437 729H287c-9.4 0-17-7.6-17-17V418.9c0-9.4 7.6-17 17-17h150c9.4 0 17 7.6 17 17V712c0 9.4-7.6 17-17 17z m-133-34h116V435.9H304V695z" p-id="6067" fill="#1296db"></path><path d="M587 729H437c-9.4 0-17-7.6-17-17V312c0-9.4 7.6-17 17-17h150c9.4 0 17 7.6 17 17v101.3c0 9.4-7.6 17-17 17s-17-7.6-17-17V329H454v366h116V511.8c0-9.4 7.6-17 17-17s17 7.6 17 17V712c0 9.4-7.6 17-17 17z" p-id="6068" fill="#1296db"></path><path d="M737 729H587c-9.4 0-17-7.6-17-17V496.9c0-9.4 7.6-17 17-17h150c9.4 0 17 7.6 17 17V712c0 9.4-7.6 17-17 17z m-133-34h116V513.9H604V695zM512 491.4c-5.5 0-9.9-4.4-9.9-9.9v-85c0-5.5 4.4-9.9 9.9-9.9s9.9 4.4 9.9 9.9v85c0 5.4-4.4 9.9-9.9 9.9zM390.3 616.2h-51.1c-5.5 0-9.9-4.4-9.9-9.9v-40.9c0-5.5 4.4-9.9 9.9-9.9h41.2v-21h-41.2c-5.5 0-9.9-4.4-9.9-9.9s4.4-9.9 9.9-9.9h51.1c5.5 0 9.9 4.4 9.9 9.9v40.9c0 5.5-4.4 9.9-9.9 9.9h-41.2v21h41.2c5.5 0 9.9 4.4 9.9 9.9s-4.4 9.9-9.9 9.9z" p-id="6069" fill="#1296db"></path><path d="M691.3 616.2h-51.1c-5.5 0-9.9-4.4-9.9-9.9s4.4-9.9 9.9-9.9h51.1c5.5 0 9.9 4.4 9.9 9.9s-4.4 9.9-9.9 9.9z" p-id="6070" fill="#1296db"></path><path d="M691.3 657.1h-51.1c-5.5 0-9.9-4.4-9.9-9.9s4.4-9.9 9.9-9.9h41.2v-61.9h-41.2c-5.5 0-9.9-4.4-9.9-9.9s4.4-9.9 9.9-9.9h51.1c5.5 0 9.9 4.4 9.9 9.9v81.7c0 5.5-4.4 9.9-9.9 9.9z" p-id="6071" fill="#1296db"></path></svg>